<?xml version="1.0" standalone="no"?>
<svg viewBox="-305 -150 1500 1500" style="width: 487.5px; height: 487.5px; justify-content: center; align-self: center; transform: scale(1, 1);" xmlns="http://www.w3.org/2000/svg"><rect x="-305" y="-150" width="100%" height="100%" fill="#cccccc" rx="30"></rect><g transform="rotate(0 519.7896137237549 611.7926864624023)"><g transform="translate(0 459)"><path d="M971.081 233.472C956.802 234.874 942.523 236.274 928.243 237.676C859.855 242.901 791.494 253.813 723.63 260.362C721.94 257.612 718.633 258.065 716.625 259.976C709.853 259.383 702.263 254.207 696.129 259.591C695.93 259.563 695.731 259.53 695.529 259.511C684.607 238.548 677.058 216.189 669.73 193.8C665.054 180.035 658.761 166.71 647.133 157.468C627.289 143.693 581.822 115.76 558.52 116.934C558.134 112.762 556.189 108.462 552.995 105.684C560.034 93.6851 531.892 85.8561 529.907 87.2471C531.179 47.1591 512.322 12.3451 470.742 4.36214C433.492 -3.39986 380.509 -4.70386 360.475 34.2251C358.273 33.9771 335.762 33.8599 333.584 34.1039C330.197 29.8149 293.008 70.457 308.25 84.606C171.978 144.888 94.4928 137.695 56.7747 307.164C51.6756 323.084 51.3042 340.505 45.9198 356.07C26.7635 400.801 11.2258 448.432 7.35888 497.104C-1.98054 499.497 -3.05463 515.964 7.76329 518.346C11.8955 519.257 15.3509 520.501 18.364 522.86C16.0086 562.746 25.6553 653.86 31.7335 653.579C44.127 693.022 99.4086 704.154 138.546 690.293C131.799 702.986 138.546 710.967 138.546 717.749C279.373 723.077 433.353 720.008 574.141 727.315C592.15 727.059 611.092 731.738 628.855 729.045C639.688 726.448 639.706 709.415 628.718 707.309L676.731 696.881C675.658 696.476 696.522 682.598 712.291 656.665C726.969 627.655 716.979 592.637 723.63 561.081C775.574 556.833 828.377 555.017 879.753 546.22C886.758 567.179 917.082 542.113 926.721 532.03C926.709 532.014 926.697 531.999 926.685 531.983C931.349 530.707 935.09 526.335 935.215 521.159C938.486 516.485 939.173 509.897 936.036 505.38C950.414 422.412 972.335 337.7 980.258 253.952C983.058 253.332 985.696 252.104 987.932 250.212L987.751 250.031C991.54 245.807 992.277 238.516 985.96 234.927C980.865 232.029 976.611 232.928 971.081 233.472Z" transform="translate(25.00024 -24.00044)" fill="#FFFFFF" stroke="none"></path><path d="M369.072 6.18403C373.315 -4.47897 387.658 -0.33397 386.059 10.868C385.102 17.578 381.427 24.665 378.126 30.546C375.438 35.333 372.372 40.005 368.215 43.593C375.615 50.497 383.296 57.149 391.172 63.465C399.766 70.356 408.803 76.708 418.144 82.546C426.335 87.666 434.896 92.202 442.617 98.044C449.796 103.475 456.336 110.007 459.664 118.534C463.209 127.614 461.668 136.992 459.058 146.066L458.758 147.092C456.091 156.082 451.474 166.919 457.876 175.389C461.135 179.701 465.873 182.755 469.964 186.202C473.6 189.266 477.013 192.598 480.143 196.177C486.968 203.979 492.519 212.758 496.022 222.54L496.335 223.429C499.338 232.088 501.532 242.696 497.475 251.198C496.311 253.635 492.557 252.843 491.905 250.47C490.431 245.094 490.508 239.464 489.272 234.012C487.986 228.342 485.846 222.96 483.051 217.868C477.643 208.017 470.319 199.603 461.666 192.489L459.076 190.383C452.326 184.843 446.124 178.966 444.754 169.798C443.288 159.989 447.218 150.645 449.745 141.361C451.506 134.891 452.081 128.689 450.178 122.842C447.853 126.637 444.681 130.239 442.172 133.452C437.175 139.853 432.131 146.215 427.1 152.589C421.942 159.125 416.911 165.764 412.12 172.575C409.977 175.622 407.857 178.687 405.744 181.755C404.155 184.061 401.939 186.365 400.207 188.717C400.628 189.975 400.596 191.425 399.833 192.455C390.648 204.865 377.581 178.971 374.173 172.429C367.233 159.106 362.068 144.952 355.105 131.632C347.89 117.824 339.674 104.384 330.517 91.778C324.978 84.153 318.77 76.991 313.703 69.124C301.766 79.948 286.058 87.204 271.63 93.784C255.777 101.013 239.308 106.918 223.055 113.188L218.254 115.053C190.249 125.983 161.56 137.99 138.283 157.403C110.93 180.216 94.7478 212.012 82.7008 244.938C68.8328 282.843 57.3598 321.771 46.6648 360.674C41.1918 380.579 35.9988 400.574 31.1168 420.633C26.8148 438.305 23.2488 456.153 18.2688 473.643C28.3688 473.286 39.8878 477.196 48.5108 478.325C87.8098 483.469 126.58 491.669 163.683 505.866C168.266 507.62 169.592 512.197 168.594 515.907C171.237 515.161 173.878 514.405 176.521 513.663C173.625 509.226 175.007 501.294 175.235 496.376L175.249 496.038C175.483 489.485 176.194 482.925 176.655 476.384C177.533 463.915 178.675 451.537 180.195 439.14L180.583 436.04C182.305 422.552 183.578 408.985 185.457 395.52L185.679 393.979C184.778 390.534 183.729 387.131 182.628 383.743C179.694 374.718 175.553 366.223 171.924 357.482C171.496 356.453 172.962 355.862 173.647 356.479C179.793 362.008 184.675 369.022 188.597 376.358C188.665 376.012 188.725 375.665 188.796 375.319L189.243 373.116C190.347 367.744 191.689 362.092 194.985 357.735C195.336 357.272 196.03 357.175 196.362 357.735C199.516 363.072 199.869 369.831 200.354 375.904C200.903 382.774 200.972 389.731 200.875 396.62C200.686 410.083 199.737 423.584 198.981 437.025C198.239 450.233 196.783 463.274 194.906 476.352L194.549 478.805C193.631 485.03 192.88 491.333 191.67 497.515L191.328 499.198C190.681 502.264 190.283 506.587 188.995 510.178C222.133 500.935 255.322 491.903 288.574 483.03C312.607 476.616 336.665 470.298 360.713 463.94C361.982 461.653 363.562 459.517 365.534 457.608C372.031 451.316 380.641 448.509 388.538 453.352C389.18 453.747 389.234 454.753 388.538 455.134C387.025 455.961 385.509 456.809 384.02 457.693L398.46 453.782C409.253 450.857 420.175 447.202 431.222 445.163C451.569 435.122 473.453 427.854 494.887 420.671L497.413 419.817C508.387 416.075 519.739 411.886 531.078 409.812C539.379 408.294 549.123 410.126 552.461 418.63C556.687 421.415 560.663 424.688 564.5 427.907C567.274 430.233 569.933 432.706 572.637 435.114L573.135 435.552C575.346 437.47 577.097 438.754 577.64 441.807C577.92 443.384 576.918 445.516 574.973 445.307C569.022 444.67 564.183 437.772 560.147 433.653C557.029 430.469 553.886 427.177 551.04 423.678C549.381 424.581 547.107 424.419 546.051 422.419C540.575 412.05 525.574 419.235 517.274 421.694L505.384 425.213C499.439 426.975 493.497 428.746 487.565 430.548C471.261 435.499 455.037 441.04 438.585 445.587C440.057 447.205 439.854 450.083 437.058 451.178C424.18 456.231 410.052 458.844 396.673 462.311C388.226 464.502 379.784 466.706 371.345 468.923C369.898 471.267 368.857 473.919 368.419 477.006C366.808 488.357 369.914 501.453 372.94 512.431L373.396 514.069C375.883 522.895 379.542 533.715 387.157 539.288C389.016 540.647 391.383 541.593 393.769 541.807C408.676 534.134 423.582 526.462 438.497 518.804C441.26 517.385 443.813 519.306 444.433 521.59C449.692 520.727 454.939 519.367 459.718 517.745C467.748 515.018 474.018 509.817 481.546 506.22C496.112 499.262 510.987 507.809 524.028 514.307L527.034 515.784C532.882 518.622 545.05 524.073 547.856 516.312C550.57 508.804 541.989 500.78 536.447 497.401C529.841 493.372 522.149 491.216 514.683 489.42C510.42 488.394 506.105 487.557 501.764 486.946C496.84 486.253 491.754 486.357 487.013 484.76C484.657 483.968 484.295 480.226 487.013 479.608C494.311 477.947 503.021 479.759 510.637 481.61L514.618 482.591C522.291 484.474 530.038 486.837 537.027 490.593C542.109 493.325 547.473 497.475 550.977 502.555C554.02 499.728 557.807 499.824 561.752 500.872L563.893 501.468C567.429 502.447 570.295 503.122 573.736 502.443C574.196 499.94 574.662 497.436 575.161 494.932C580.064 470.318 585.441 445.798 591.374 421.409C601.608 379.341 613.45 337.735 626.8 296.556L628.14 292.439C631.219 283.02 633.697 272.758 638.661 264.105C643.356 255.923 650.878 251.21 659.815 248.714C669.957 245.882 680.614 244.4 690.96 242.487C693.268 242.061 695.582 241.656 697.892 241.237C695.94 237.712 694.483 233.711 693.17 230.641L692.94 230.109C690.12 223.68 687.587 217.136 685.141 210.556L683.312 205.61C678.895 193.699 674.336 181.984 668.127 170.844C661.591 159.12 652.92 149.535 642.111 141.602C620.073 125.426 593.51 117.175 572.135 99.888C571.259 99.18 572.382 97.969 573.271 98.417C587.704 105.669 603.285 110.6 618.297 116.504L621.258 117.672C633.124 122.376 645.174 127.497 655.444 135.112C666.894 143.604 675.912 154.15 682.69 166.691C689.37 179.053 693.643 192.89 698.356 206.094L699.616 209.612C701.517 214.888 703.481 220.148 705.731 225.282C707.517 229.358 710.85 234.011 712.365 238.667C716.51 237.948 720.654 237.227 724.803 236.534C814.67 221.53 905.541 212.714 996.614 210.135C1000.18 210.034 1002.02 213.434 1001.49 216.542C992.755 268.223 984.988 320.081 976.466 371.801C972.746 394.374 968.952 416.93 965.069 439.475C963.102 450.897 960.828 462.275 958.965 473.714C957.461 482.952 956.369 492.262 953.787 501.286C951.471 509.377 947.917 517.179 942.08 523.352C935.788 530.006 927.006 533.227 918.166 534.749C895.725 538.611 872.707 540.188 850.084 542.761L729.637 556.464C731.397 572.463 731.529 588.212 730.721 604.397L730.261 613.233C729.884 620.339 729.435 627.457 728.414 634.49C727.134 643.313 723.098 650.784 717.153 657.374C711.694 663.426 705.062 668.59 698.611 673.538C691.915 678.676 684.996 683.635 677.123 686.812L676.101 687.218C669.194 689.914 656.237 694.09 646.797 692.564C648.031 698.747 650.419 705.395 648.302 711.513C647.32 714.354 643.605 715.771 641.329 713.354C636.82 708.563 636.468 702.235 635.4 695.985C634.289 689.481 633.331 682.954 632.48 676.411C630.834 663.76 629.553 650.993 629.162 638.235C628.76 625.133 628.915 612.013 629.621 598.925C629.984 592.204 630.434 585.487 631.287 578.809C631.651 575.961 632.023 573.111 632.448 570.27C632.603 569.234 632.775 568.203 632.96 567.174L622.149 568.394C605.572 570.244 588.988 571.915 572.294 572.175C570.317 572.205 568.796 571.305 567.802 569.994C566.743 571.719 564.899 572.953 562.258 572.943C538.945 572.856 517.235 565.233 496.031 556.249C485.343 551.719 474.821 546.815 464.117 542.324C454.126 538.132 443.445 535.141 433.695 530.419L408.075 543.857C407.887 544.518 407.646 545.143 407.39 545.666C405.722 549.071 402.433 550.918 399.074 552.309C395.85 553.647 392.511 554.063 389.258 553.725C369.828 563.907 350.393 574.079 330.945 584.228L311.493 594.368C272.737 614.547 234.134 635.057 195.134 654.762L192.263 656.207C178.792 662.962 164.327 669.809 149.378 674.918C149.112 678.702 149.28 682.382 149.597 686.387L149.673 687.259C150.119 691.992 151.075 697.923 147.278 701.292C145.303 703.044 141.775 703.051 140.432 700.409C137.995 695.618 140.183 688.065 140.955 682.86C141.229 681.009 141.563 679.106 142.057 677.26C124.919 682.362 107.262 684.836 89.8218 681.971C72.8418 679.184 59.6908 668.487 49.0888 655.403C37.8998 641.596 29.9488 625.505 25.6828 608.256C20.8278 588.628 20.5108 568.358 20.6248 548.253C20.7458 526.844 21.5378 505.329 24.1418 484.064C21.2888 483.393 18.1248 482.813 15.2418 483.013C13.8138 485.298 11.0438 486.26 8.5408 485.963C3.0978 491.966 16.9038 498.101 21.3158 499.637C22.8478 500.171 22.6838 502.659 20.9168 502.584L19.8038 502.531C12.9864 502.168 5.94317 501.004 1.9348 494.669C-1.2772 489.591 -0.312196 483.575 3.5168 479.434C6.0458 455.522 12.0918 432.237 17.7188 408.911C23.2408 386.016 29.3818 363.268 35.8908 340.635L38.8088 330.505C49.0571 295.016 59.7692 259.241 73.9058 225.163C80.9648 208.147 89.0968 191.444 100.12 176.607C110.395 162.776 122.526 150.941 136.47 140.833C162.465 121.987 192.967 110.6 222.937 99.7515L224.279 99.266C239.81 93.648 255.303 87.963 270.657 81.876C284.236 76.493 297.245 69.668 310.76 64.204C310.321 63.407 309.897 62.601 309.489 61.786L309.239 61.9962C309.196 62.0301 309.152 62.063 309.107 62.094C307.748 63.036 305.747 62.573 304.627 61.516C301.464 58.532 302.535 55.2195 304.646 52.1249L304.921 51.731C307.503 48.114 309.806 44.29 312.189 40.542L313.681 38.1982C317.681 31.9365 321.884 25.6331 327.218 20.458C329.688 18.06 332.392 16.266 335.257 14.929C335.012 14.411 337.16 13.352 337.769 13.885C346.846 10.563 357.289 11.259 367.185 12.175M723.809 557.126L711.189 558.561C697.305 560.141 683.415 561.668 669.524 563.181L639.352 566.46C639.275 568.18 639.066 569.862 639.028 571.161C638.831 577.858 638.684 584.558 638.545 591.257C638.266 604.685 638.572 618.126 639.456 631.528C640.313 644.514 641.441 657.502 643.195 670.401L643.554 672.979L643.762 674.335C645.193 674.473 646.599 675.153 647.768 676.55C650.32 679.597 659.561 676.635 663.17 675.351C669.105 673.239 674.694 669.671 679.851 666.093C684.887 662.599 689.422 658.526 693.78 654.234L697.345 650.708C700.892 647.183 704.443 643.428 706.616 638.995C709.563 632.983 709.944 625.603 710.808 619.055C711.872 611.001 713.139 602.948 714.478 594.934M357.454 472.584L356.145 472.928C308.594 485.563 261.114 498.571 213.417 510.648C189.813 516.626 166.097 522.169 142.464 528.032L138.638 528.989C119.994 533.701 101.126 539.372 86.8488 552.895C86.3218 553.393 85.5568 552.628 86.0528 552.099C101.44 535.719 123.324 528.785 144.336 522.774C148.22 521.663 152.109 520.578 155.994 519.473C127.418 509.286 98.3908 500.423 68.6938 494.102C61.0468 492.474 53.3108 491.279 45.6698 489.645C40.3409 488.505 35.1367 486.857 29.8641 485.489L25.7168 484.446L25.6617 497.554C25.5927 516.119 25.6257 534.669 26.5728 553.231L26.7521 556.67C27.8572 577.327 29.5821 598.413 36.9128 617.891C42.8698 633.719 52.3648 648.63 64.7818 660.159C71.0648 665.992 77.8198 670.533 86.1698 672.775C93.9228 674.856 102.046 675.1 110.016 674.545C148.245 671.878 182.275 651.111 215.483 633.917C269.8 605.794 324.123 577.685 378.495 549.67C377.025 548.665 375.641 547.507 374.382 546.206C367.091 538.676 363.245 528.368 360.719 518.385C358.03 507.759 356.422 496.37 356.235 485.4M426.637 560.526C427.117 560.268 427.673 560.591 427.695 561.133C427.863 565.286 425.568 569.382 423.853 573.123L423.672 573.522C421.589 578.156 419.308 582.728 416.949 587.228C412.234 596.219 407.334 605.114 402.22 613.883C391.936 631.524 380.508 648.422 367 663.782C363.949 667.252 358.931 662.803 360.889 659.067C370.329 641.057 381.334 624.052 392.662 607.195C398.333 598.755 404 590.307 409.727 581.905C412.116 578.399 414.536 574.906 417.021 571.466L418.52 569.408M990.592 220.45C942.875 221.891 895.214 225.003 847.724 229.88C803.558 234.415 759.554 240.452 715.798 247.978C706.659 249.55 697.531 251.186 688.414 252.887L682.946 253.915C673.828 255.643 662.689 256.356 654.571 261.227C646.012 266.362 643.699 277.094 640.851 285.944C637.503 296.352 634.24 306.79 631.065 317.253C618.457 358.796 606.94 400.699 596.666 442.879C591.566 463.816 587.041 484.87 582.273 505.883C578.037 524.553 573.363 543.012 568.48 561.495C569.082 561.027 569.82 560.671 570.711 560.481C594.959 555.322 619.71 553.08 644.321 550.23L646.702 549.952C672.161 546.958 697.62 543.986 723.094 541.122L891.753 522.155C901.7 521.037 912.356 520.885 922.036 518.216C938.494 513.676 942.351 495.276 945.112 480.623L945.196 480.18C953.521 435.907 960.148 391.249 967.912 346.864M572.405 510.029C565.857 509.597 556.895 503.6 551.927 504.03C554.535 508.406 555.712 513.397 554.209 518.727C550.026 533.559 531.109 525.885 521.997 521.354C514.526 517.637 507.312 513.089 499.041 511.348C489.671 509.378 483.323 513.104 475.407 517.399C468.905 520.926 461.824 523.459 454.542 524.77C450.67 525.468 446.992 525.542 443.321 525.27C443.1 525.45 442.851 525.617 442.567 525.766L440.625 526.785C449.406 527.187 458.35 529.897 466.522 532.378C474.99 534.948 483.303 538.046 491.572 541.214L499.706 544.341C519.772 552.024 540.542 559.321 562.258 559.257C563.819 559.253 565.098 559.685 566.105 560.39M535.769 463.555C542.238 462.764 548.209 463.612 553.378 467.823C559.612 472.901 563.8 481.323 572.762 481.876C575.375 482.037 575.982 485.711 573.385 486.479C566.714 488.454 561.313 484.845 556.768 480.159L553.712 476.966C549.221 472.316 545.078 468.72 537.457 468.998C529.295 469.296 521.119 471.182 513.01 472.141C503.824 473.227 494.64 474.153 485.425 474.952C484.997 474.989 484.924 474.315 485.325 474.216L495.646 471.647M529.525 437.109L530.592 437.002C539.985 436.09 548.576 436.055 556.966 441.108L558.575 442.081C566.139 446.678 574.372 452.094 579.102 459.538C579.876 460.757 578.597 462.19 577.302 461.88C568.211 459.698 561.565 453.028 553.92 448.036C545.34 442.434 536.477 443.358 526.694 444.228C517.222 445.071 507.755 446.229 498.376 447.808C489.563 449.29 480.722 451.63 471.82 452.376L471.822 452.358C470.805 452.356 470.225 450.829 471.262 450.311C480.296 445.8 490.759 443.665 500.586 441.604M814.89 344.264C813.982 339.921 819.324 337.907 821.799 341.352L822.326 342.079C827.675 349.407 835.411 358.603 835.018 367.923C839.72 368.026 844.595 370.883 846.427 375.126C847.273 377.089 847.561 379.415 847.374 381.823C851.648 382.155 856.309 384.961 858.922 387.693C863.253 392.222 863.594 398.622 860.488 403.914C853.713 415.45 838.914 419.646 826.421 420.583L825.976 420.615C813.072 421.507 794.478 421.266 785.63 410.195C777.095 399.516 786.528 390.87 796.201 386.175C793.683 383.876 792.379 380.579 793.605 377.102C795.758 370.991 803.359 368.63 807.654 364.382C812.889 359.202 816.349 352.097 814.97 344.669M821.982 353.655C820.558 359.839 817.063 365.495 812.193 369.977C810.331 371.691 808.294 373.217 806.13 374.528L805.87 374.679C803.95 375.757 799.229 377.777 799.592 380.196C799.966 382.682 807.657 386.573 809.753 386.575C810.23 386.575 810.5 387.32 810.013 387.536C806.214 389.214 802.896 389.933 799.182 388.16C796.7 390.694 794.289 393.316 791.901 395.915C787.677 400.514 789.122 405.37 794.112 408.794C802.13 414.296 814.318 414.162 823.673 413.762C833.089 413.36 843.154 411.26 850.509 404.988L850.83 404.709C854.827 401.154 858.478 395.13 852.357 391.706C849.959 390.365 847.37 390.444 845.094 389.792C842.964 393.967 839.508 397.311 835.292 397.956C831.885 398.477 829.539 394.195 832.638 392.146L833.334 391.714C837.226 389.23 840.547 385.404 840.459 380.421C840.399 376.962 835.569 372.594 832.422 375.844L832.279 375.999C829.645 378.967 825.008 375.227 826.739 371.938L826.823 371.789M207.862 181.676C207.85 180.933 208.895 180.655 209.26 181.298C215.372 192.051 218.568 205.232 221.824 217.079C225.233 229.489 227.986 242.025 230.46 254.653C235.468 280.224 238.137 305.648 238.319 331.71C238.343 335.431 232.281 336.421 231.688 332.608C227.751 307.257 223.979 281.88 220.012 256.536C218.016 243.789 215.693 231.091 213.471 218.382M268.371 200.405C267.921 198.922 270.078 198.426 270.63 199.782C282.896 229.891 287.051 264.013 279.176 295.778C277.97 300.637 270.854 298.532 271.763 293.734M426.588 173.651C426.526 172.541 427.967 172.366 428.51 173.13C434.322 181.319 436.733 192.286 446.93 196.518C452.021 198.631 457.75 198.263 462.248 201.832C465.255 204.219 467.561 207.987 465.304 211.602C464.576 212.77 462.538 213.355 461.55 212.086C460.108 210.237 459.345 208.023 457.386 206.637C454.623 204.682 450.897 204.561 447.729 203.642C443.631 202.454 440.019 200.375 437.061 197.286M523.686 37.0674C524.285 36.7624 524.86 36.9574 525.243 37.4754C525.79 38.2134 525.723 38.9314 525.053 39.4374C525.948 41.2664 527.005 45.8484 527.156 46.5154C527.768 49.2194 528.419 51.9074 529.1 54.5934C530.474 60.0104 531.678 65.4694 533.053 70.8884C534.511 76.6324 536.248 82.3154 538.181 87.9164C538.306 88.2791 538.443 88.6493 538.587 89.025L538.807 89.5924L538.861 89.5064C539.254 88.8854 540.072 89.3194 539.975 89.9754C539.885 90.5734 539.764 91.1684 539.662 91.7664L539.865 92.3022C541.129 95.7053 541.995 99.2895 539.675 102.292C538.807 103.415 537.852 104.08 536.662 104.278C534.754 110.568 532.36 116.741 529.797 122.669L529.046 124.401C525.276 133.051 521.255 141.587 515.252 148.951C508.698 156.991 499.683 162.481 493.974 171.291C491.318 175.389 489.47 179.698 487.97 184.326L487.406 186.083C486.341 189.357 485.113 192.529 482.042 194.449C481.062 195.061 479.594 194.866 478.804 194.031C472.507 187.37 479.099 174.932 482.896 168.483C488.174 159.515 495.813 153.778 503.462 147.012C511.707 139.719 516.966 129.963 522.053 120.352C525.169 114.464 528.177 108.449 531.344 102.535C528.035 99.6111 526.976 93.8021 525.855 89.7645L525.753 89.4024C523.9 82.9364 522.428 76.3024 521.498 69.6394C520.603 63.2328 520.23 56.9184 520.466 50.4759L520.535 48.8348M535.988 67.5592C535.257 66.5572 536.467 65.4222 537.47 65.6312C543.569 66.8922 549.531 70.5835 555.004 73.5683L555.588 73.8852C559.957 76.2412 564.353 79.1272 566.647 83.7042C569.142 88.6788 568.937 94.4084 568.597 99.8144L568.564 100.32C568.147 106.803 568.08 113.539 566.708 119.905C566.006 123.163 563.055 124.081 560.532 123.311C557.53 132.79 549.097 139.774 542.937 147.254C535.083 156.79 536.561 169.665 537.382 181.15C537.714 185.8 531.93 187.122 528.951 184.641L522.086 178.939C520.943 177.987 519.801 177.034 518.662 176.076C517.687 175.256 516.721 174.429 515.762 173.591L514.33 172.327C513.695 171.759 510.894 168.63 510.075 168.5C508.092 168.185 503.379 173.413 501.766 175.053L501.561 175.257C498.525 178.234 495.782 181.437 493.227 184.834C492.757 185.458 491.838 184.94 492.174 184.219C494.464 179.315 497.126 174.626 500.287 170.238L500.925 169.364C503.028 166.53 505.851 161.526 509.563 160.689C514.096 159.668 518.622 164.213 521.92 166.736L522.128 166.894C523.697 168.071 525.248 169.269 526.796 170.475C526.634 161.924 527.714 153.284 532.129 145.915C535.242 140.718 539.906 136.869 543.897 132.403C548.34 127.43 550.66 121.318 554.682 116.139C555.2 115.473 555.914 115.114 556.687 115C556.842 110.837 557.455 106.632 557.929 102.513L558.066 101.28C558.545 96.8052 559.677 91.3392 557.486 87.1482C555.417 83.1897 550.668 80.3955 547.152 77.7097L544.28 75.4825M338.074 20.241C336.238 21.303 334.522 22.624 332.965 24.275C328.064 29.474 324.56 35.944 321.15 42.168C319.314 45.52 317.544 48.909 315.693 52.253C314.888 53.708 314.06 55.147 313.223 56.584C312.836 57.246 311.686 58.562 311.116 59.373C311.749 60.2604 312.404 61.1342 313.072 61.9986C313.327 62.3284 330.908 81.4797 337.036 88.975C346.42 100.456 354.808 112.583 361.979 125.563C369.001 138.274 374.347 151.732 380.852 164.689C384.108 171.176 387.744 177.617 392.379 183.231C392.558 183.45 392.747 183.657 392.93 183.873C394.699 179.094 399.232 173.977 401.458 171.039L401.666 170.762C406.715 163.956 412.047 157.355 417.495 150.866C422.471 144.941 427.573 139.143 432.799 133.442L434.765 131.308C438.406 127.375 443.031 121.49 448.361 118.68C447.79 117.662 447.129 116.655 446.369 115.661C441.375 109.135 434.315 104.399 427.35 100.126L422.832 97.3781C405.804 87.0013 389.042 76.1436 374.259 62.661C366.438 55.527 358.725 48.054 352.151 39.733L349.826 36.7909M366.486 15.104C358.512 15.773 349.901 15.614 342.532 18.212C349.083 24.405 355.31 31.092 361.707 37.389C362.276 33.13 363.44 28.923 364.426 24.77" transform="translate(18.9997 -5.000531)" fill="#000000" stroke="none"></path></g><g transform="translate(225 0)"><g><g><path d="M185.626 0C242.407 0 301.136 44.012 321.95 72.0972C339.449 95.7099 348.871 202.486 348.871 274.645C348.871 289.737 357.199 318.186 354.769 332.622C345.863 385.521 307.06 429.886 230.262 429.886C153.463 429.886 98.3997 399.445 41.3173 317.713C13.6206 317.713 0.197717 296.473 0.00278191 262.954C-0.192153 229.435 26.7371 217.24 26.7371 217.24C26.7371 217.24 17.1355 84.9611 41.3173 50.522C65.499 16.0828 128.845 -8.27315e-15 185.626 0Z" transform="translate(56.41525 75.25961)" fill="#FFFFFF" stroke="none"></path><path d="M274.456 7.28737C239.126 0.976367 203.996 -2.07363 168.146 1.55637C150.635 3.33737 133.196 6.21637 116.196 10.8274C101.246 14.8974 84.2463 19.6864 71.3463 28.8374C66.4163 22.4874 58.5363 17.1574 50.2063 19.6674C41.3563 22.3374 39.9063 30.1064 41.6563 38.1474C41.8288 38.9319 42.0203 39.4037 42.1459 39.713C42.3425 40.1973 42.3774 40.2832 41.9244 40.5476L41.4163 40.8274C39.7263 41.7474 37.7153 41.9174 36.0263 43.0264C32.9653 45.0374 30.9363 48.3664 30.0453 51.8774C28.0963 59.5264 31.8353 66.1764 36.5563 71.8274C19.9063 95.9174 10.5263 124.337 6.82627 153.287C4.85627 168.667 4.45627 184.457 5.93627 199.897C6.63527 207.207 7.40627 214.647 8.98627 221.827C10.3353 227.966 12.4163 233.797 14.7063 239.606L15.0053 240.386C6.83527 247.547 1.84627 258.547 0.516266 269.167C-1.69373 286.766 3.30627 308.337 13.3163 323.087C16.2953 327.466 19.8163 331.317 23.9363 334.417C22.4563 337.287 21.2663 340.337 20.1863 343.136L19.7935 344.15C17.8906 349.058 15.7137 354.843 17.8263 359.936C20.1463 365.547 26.3753 366.726 31.4463 364.087C32.0863 363.755 32.7193 363.399 33.3503 363.033C34.5763 363.052 35.8333 362.887 37.0913 362.605C38.4253 367.075 41.1703 371.184 44.7483 373.629C51.5473 378.276 61.4233 377.832 68.2513 373.184C75.1443 384.313 83.8243 394.421 93.4363 403.266L93.6568 403.47C94.0369 403.822 94.4257 404.186 94.8229 404.559C99.9048 409.324 106.361 415.378 113.585 412.497C120.626 409.696 119.465 401.247 115.186 396.407C110.786 391.446 104.806 387.537 100.016 382.886C94.9463 377.976 90.0263 372.987 85.3753 367.676C80.4463 362.047 75.5853 356.346 70.5763 350.797C67.8663 347.787 65.0663 344.837 62.4063 341.776C61.3663 340.183 60.2507 338.652 59.1808 337.222L57.6253 335.157C57.7763 334.926 57.9363 334.707 58.0763 334.466C60.1663 330.987 58.0363 327.147 54.5763 325.856C49.3463 323.917 43.7763 324.556 38.6353 322.497C33.4563 320.426 29.5363 316.207 26.6753 311.537C20.1753 300.917 16.3263 286.957 16.4363 274.537C16.5263 263.926 20.8853 252.386 30.3753 246.787C34.5423 244.33 41.3453 243.214 47.3933 244.233C49.9383 246.436 52.7063 248.484 55.0193 250.939L54.7263 251.667C54.4763 252.297 55.4763 252.897 55.8963 252.346L56.0673 252.124C56.7393 252.936 57.3643 253.791 57.9013 254.722C60.5933 259.394 61.7203 264.323 67.4233 266.281C71.0817 267.537 74.5448 266.638 78.0434 265.729C79.5464 265.339 81.0559 264.947 82.5903 264.723C86.8643 264.1 88.8083 258.87 87.9903 255.212C85.4563 243.874 83.1253 232.516 80.3183 221.238L79.3443 217.421C86.1473 205.805 92.3913 193.842 98.3753 181.766C98.5563 184.037 98.7663 186.317 99.0163 188.587C99.4463 192.446 104.786 196.237 107.906 192.266C118.175 179.186 128.476 166.436 137.056 152.127C142.776 142.587 147.835 132.587 152.316 122.356C152.776 123.886 153.276 125.407 153.816 126.886C155.585 131.647 159.976 135.056 165.236 133.616C170.206 132.257 173.246 127.556 175.516 123.306L177.817 118.981C179.345 116.094 180.863 113.2 182.376 110.306C189.956 120.067 199.266 128.276 210.045 134.547C212.755 136.127 216.986 134.787 217.635 131.466C219.326 122.846 221.005 114.237 222.686 105.627C237.076 116.067 252.236 125.356 268.106 133.417C271.686 135.237 276.196 133.026 276.206 128.766C276.215 121.946 276.766 115.186 278.085 108.497C285.026 113.827 292.795 117.827 301.166 120.426C309.166 122.917 317.826 124.077 326.175 123.266C326.246 123.257 326.326 123.247 326.396 123.247L327.616 123.946L327.848 124.073C330.084 125.239 332.218 124.691 333.706 123.356C337.726 153.657 344.576 183.476 347.156 214.037C348.566 230.726 349.266 247.516 349.056 264.276C348.946 272.356 348.635 280.426 348.125 288.497C347.666 295.596 346.465 302.776 345.956 309.897C344.146 311.856 343.226 314.606 344.096 317.567C346.686 326.337 350.795 334.257 351.715 343.537C352.616 352.686 351.826 361.957 349.536 370.846C345.045 388.237 334.835 404.397 320.675 415.497C291.175 438.616 249.856 447.337 213.096 442.196C191.835 439.216 172.266 433.096 155.396 419.377C154.936 418.997 154.146 419.476 154.516 420.056C178.096 456.707 224.786 465.577 265.135 458.987C308.726 451.866 352.125 424.466 366.505 381.047C370.316 369.556 372.026 357.096 370.946 345.016C370.076 335.257 368.016 324.446 362.896 315.737C364.396 307.476 364.416 298.707 364.816 290.356L364.947 287.46C365.271 279.734 365.398 272.001 365.335 264.276C365.206 247.167 364.146 230.087 361.996 213.106C358.98 189.239 354.786 164.745 346.5 141.931C348.723 141.443 350.829 139.454 351.027 137.046C351.62 129.833 350.615 122.775 348.489 116.024C353.587 113.692 357.985 110.117 359.005 104.147C359.516 101.127 359.045 98.1474 357.816 95.6164C366.286 87.6274 373.476 76.3064 372.916 65.1474C372.536 57.7574 367.156 52.2074 359.916 51.2474C358.556 51.0674 357.186 51.0374 355.826 51.1274C356.496 49.5564 357.085 47.9464 357.436 46.2664C358.806 39.6864 356.375 32.5374 350.175 29.2974C345.304 26.7516 339.903 27.5423 334.904 29.1461L334.175 29.3864C334.755 28.3464 335.326 27.3064 335.875 26.2374C338.625 20.8564 335.206 14.8974 329.175 14.5674C312.556 13.6574 295.896 12.4364 279.255 11.6764C278.686 9.54737 277.156 7.77637 274.456 7.28737ZM41.0667 261.738C34.9557 260.667 28.7457 264.707 28.8067 271.257C28.8167 272.207 30.2157 272.408 30.4657 271.477L30.5265 271.288C31.2093 269.445 34.0773 268.822 35.6257 269.267C36.4283 269.496 37.0957 269.979 37.7172 270.509L38.1257 270.867C40.0167 272.527 41.2267 274.727 42.6067 276.797L42.9212 277.273C45.9584 281.892 48.9263 286.864 53.5567 289.967C60.3067 294.467 67.5357 285.828 64.1157 279.408C61.7823 275.057 57.2886 271.745 53.3745 268.672L51.8074 267.432C48.5931 264.901 45.17 262.452 41.0667 261.738Z" transform="translate(50.00023 54.99953)" fill="#000000" fill-rule="evenodd" stroke="none"></path></g></g><g transform="translate(159 186)"><g><path d="M141.802 1.2469C147.407 -0.326101 153.625 -0.294101 159.319 0.693899C165.011 1.6819 170.79 4.0409 175.437 7.4819L175.976 7.88481C181.049 11.7076 187.103 17.2698 186.779 24.0419C186.508 29.6969 180.559 33.5219 175.423 30.5579C171.236 28.1409 169.266 23.2989 165.721 20.0749C162.796 17.4139 159.36 15.3159 155.694 13.8459C151.622 12.2129 147.543 11.4479 143.173 11.3749C141.115 11.3407 139.051 11.74 137.002 12.1362C135.7 12.3881 134.404 12.6387 133.121 12.7759C133.393 13.3339 130.783 13.0739 129.287 12.5789C128.179 12.1069 128.173 10.7059 128.557 9.7969C130.462 5.2939 137.393 2.4829 141.802 1.2469ZM50.0347 1.6454C37.8057 -2.3056 21.3267 5.4474 12.2577 13.4754C6.35871 18.6964 -3.47429 32.6004 3.28171 40.2424C3.93071 40.9784 5.02771 40.9684 5.83771 40.5714C8.91971 39.0634 11.0877 35.6214 13.2187 33.0054C15.9237 29.6864 19.5777 27.4234 23.4627 25.6124C32.7137 21.3024 43.1927 22.9944 52.2817 18.8364C60.1307 15.2454 57.0657 3.9164 50.0347 1.6454ZM22.2565 44.7131C32.9875 26.0631 59.5365 25.8481 74.7255 40.0901C89.2275 53.6891 91.0215 76.8901 79.4385 92.7941C67.0935 109.744 43.1125 114.433 23.6655 108.392C5.43551 102.729 -4.36349 82.9501 1.88551 64.8281C5.26551 55.0261 13.0455 48.2491 22.2565 44.7131ZM175.589 38.5719C167.731 33.0679 157.292 31.0269 147.903 32.8909C138.283 34.8019 131.863 40.8339 128.475 49.8509C128.406 50.0329 128.365 50.2099 128.328 50.3849C123.509 55.4719 120.252 62.2019 119.459 69.6689C117.594 87.2089 130.968 104.619 148.257 107.709C165.193 110.736 182.954 100.657 189.452 84.8139C196 68.8509 189.679 48.4409 175.589 38.5719ZM61.9885 47.2301C51.2235 40.7501 35.3965 44.3681 26.1495 52.1911C24.3135 53.7451 22.2415 53.2901 21.1145 51.9341C14.8385 57.0001 10.4075 64.0871 9.69551 72.7171C8.42051 88.1961 19.4435 98.3761 34.2955 99.5471C49.4735 100.744 65.1815 96.5081 72.3305 81.9651C78.5035 69.4101 73.9725 54.4431 61.9885 47.2301ZM136.02 52.2039C143.38 46.5479 155.469 44.5949 163.898 47.8999C174.61 52.0999 180.746 63.8519 179.565 75.0329C178.337 86.6579 168.003 95.8139 156.565 97.0159C144.206 98.3149 132.956 89.1819 129.844 77.4579C127.69 69.3399 130.417 59.4279 136.02 52.2039ZM156.747 65.4442C158.667 64.0742 160.96 65.6172 161.663 67.4442L162.065 68.2722C162.277 68.7152 162.496 69.1732 162.504 69.1902L162.579 69.4112C162.682 69.6022 162.803 69.7802 162.919 69.9612C163.01 70.0232 163.757 70.9582 163.857 71.0802C165.061 72.5682 165.702 73.9292 165.663 75.8872C165.59 79.7582 161.979 82.4842 158.234 81.5472C154.206 80.5392 152.491 76.3732 152.857 72.5482C153.148 69.5202 154.252 67.2232 156.747 65.4442ZM53.6607 66.1836C51.9067 64.4316 49.1647 64.5676 47.3877 66.1836C44.5337 68.7776 43.8497 75.2176 46.1017 78.2576C48.0047 80.8236 50.8987 82.1716 54.0237 80.8536C57.1657 79.5266 58.1547 76.5586 57.6967 73.3696C57.5034 72.015 56.7514 70.9548 56.0322 69.8506L55.7047 69.3366C55.0137 68.2176 54.6237 67.1456 53.6607 66.1836ZM125.748 127.04C133.872 115.661 122.366 104.957 114.814 100.367C112.836 98.9475 114.406 94.2437 118.634 94.9707C157.031 101.568 137.136 167.708 88.1119 131.413C82.2754 126.705 89.3434 116.334 95.6341 120.366C95.9531 120.611 96.2876 120.87 96.6363 121.139C103.704 126.604 116.635 136.602 125.748 127.04ZM95.8818 163.734C105.204 160.394 115.098 161.65 124.502 165.119L125.345 165.435C133.984 168.728 144.54 174.448 148.074 183.381C148.774 185.152 149.102 186.964 149.146 188.767C150.301 188.881 151.446 189.031 152.581 189.23C154.917 189.641 154.807 193.353 152.581 193.841C151.171 194.15 149.735 194.376 148.286 194.545C146.946 198.711 144.173 202.492 140.671 205.144C132.473 211.351 121.175 212.52 111.265 213.469C100.306 214.518 89.2931 214.262 78.3751 212.935L74.5316 212.443C65.5911 211.282 55.6222 209.788 48.0208 205.005C40.8658 200.504 35.9718 191.813 39.0008 183.372C42.1018 174.728 52.7318 171.06 60.6218 168.285C71.9588 164.297 84.0228 162.733 95.8818 163.734ZM78.3108 172.135C83.0018 170.956 87.7618 170.114 92.5578 169.6C93.1078 170.171 93.8328 170.576 94.6448 170.634L95.1918 170.673C94.8528 176.682 94.7498 182.694 94.9098 188.707C89.8918 188.6 84.8738 188.482 79.8558 188.359C79.7698 186.726 79.6758 185.092 79.5608 183.459C79.3018 179.75 79.5358 175.686 78.3108 172.135ZM99.0268 188.795C97.8968 182.823 97.0488 176.809 96.4378 170.761C103.047 171.226 109.653 171.68 115.964 173.073C116.149 178.123 116.22 183.176 116.034 188.228C116.025 188.469 116.012 188.712 115.999 188.956C111.031 188.95 106.063 188.918 101.096 188.839L99.0268 188.795ZM75.1318 172.988C72.9388 173.615 70.7628 174.311 68.6078 175.091L66.2573 175.94C60.5912 178.005 53.0926 180.994 49.9338 185.612C49.4028 186.388 49.0838 187.139 48.9268 187.864C55.0732 187.297 61.395 187.611 67.6542 187.922C69.4837 188.013 71.3079 188.103 73.1208 188.172C73.2301 187.124 73.343 186.076 73.4621 185.029L73.6458 183.459C74.0558 180.068 74.0518 176.301 75.1318 172.988ZM118.556 173.707C119.109 178.778 119.57 183.858 119.99 188.944L124.343 188.937C125.068 188.935 125.793 188.931 126.519 188.925C130.596 188.887 134.785 188.62 138.969 188.508C138.657 186.324 137.371 184.103 135.001 182.082C129.985 177.805 124.421 175.281 118.556 173.707ZM48.8168 189.153C49.0868 193.98 56.7178 197.425 60.6468 198.559C64.3958 199.642 68.2118 200.52 72.0668 201.218C71.9938 200.895 71.9578 200.577 71.9838 200.284C72.2288 197.56 72.4698 194.837 72.7268 192.117L70.6579 191.953C63.3866 191.393 55.8253 190.944 48.8168 189.153ZM80.3708 200.284C80.2708 197.756 80.1758 195.228 80.0648 192.702C85.0528 193.068 90.0418 193.358 95.0368 193.602C95.0938 196.821 95.1468 200.283 96.1448 203.298C90.6898 203.302 85.2198 203.002 79.7978 202.365C80.1778 201.759 80.4008 201.059 80.3708 200.284ZM100.141 193.838L100.576 195.471C101.25 198.03 101.862 200.662 101.772 203.188C104.315 203.092 106.85 202.94 109.371 202.721L112.587 202.447C113.318 202.385 114.058 202.319 114.804 202.249C114.969 199.631 115.277 196.978 115.551 194.36C110.413 194.221 105.276 194.055 100.141 193.838ZM121.066 201.495C120.974 199.152 120.756 196.787 120.522 194.474L124.52 194.57C125.186 194.585 125.852 194.599 126.519 194.61C129.899 194.665 133.383 194.842 136.877 194.924C135.837 196.116 134.442 197.192 132.702 198.082C129.243 199.851 125.194 200.852 121.066 201.495Z" transform="translate(56.00009 41.9997)" fill="#000000" fill-rule="evenodd" stroke="none"></path></g></g><g transform="translate(123 338)"></g><g transform="translate(47 241)"><g><path d="M400.241 22.4717C406.555 19.4817 413.812 19.6607 420.603 20.5487C434.349 26.9267 404.861 34.3147 401.349 27.5287C404.801 52.9717 394.935 94.8897 366.724 108.133C334.13 124.07 298.773 99.8287 300.056 60.9787C293.067 59.2817 297.925 39.7137 300.739 31.7647C288.447 29.8527 276.738 28.7257 264.894 32.4797C271.42 50.8857 248.187 106.288 225.854 117.325C208.541 129.283 169.496 123.951 153.944 105.365C142.844 91.1707 137.3 58.2287 143.442 35.3387C143.388 35.3147 143.332 35.2967 143.279 35.2697C142.912 38.8697 118.056 38.4687 119.298 32.3037C83.5946 32.9447 49.0266 38.4207 13.6856 42.2807C9.41771 42.6777 9.20869 45.7037 9.00443 48.6607C8.82951 51.1931 8.65807 53.675 5.94363 54.4117C-4.52237 54.6617 0.226628 36.3637 9.44663 34.6657C18.2509 33.7459 27.1162 32.5506 36.011 31.3514C64.1217 27.5615 92.5269 23.7319 120.232 28.4287C124.112 23.4993 131.1 25.2524 136.795 26.6809C138.398 27.083 139.898 27.4593 141.198 27.6537C145.902 -0.109269 221.595 1.54173 246.677 12.8057C273.452 9.72473 301.309 7.96173 327.861 5.72573C344.673 0.333732 364.25 -2.44827 381.745 2.80973C384.166 2.67632 384.439 3.06209 384.978 3.82285C385.074 3.95736 385.177 4.10358 385.303 4.26073C392.194 7.30073 398.297 14.2087 400.241 22.4717ZM391.09 53.2827C381.556 117.772 315.002 124.904 303.177 60.8817C305.075 60.0507 306.44 58.4147 306.155 55.2387C306.088 41.2867 310.419 26.5407 323.005 18.7817C336.011 10.7757 351.232 9.98173 366.283 10.1837C395.005 9.49973 394.401 33.5067 391.09 53.2827ZM264.265 30.6657C272.34 25.1737 283.744 24.8557 292.758 25.2357C295.861 25.4177 300.059 25.2717 302.99 26.8347C306.149 20.6497 311.009 15.2997 316.233 11.7387C313.192 11.9693 310.141 12.2092 307.085 12.4496C288.207 13.9342 269.092 15.4374 250.449 14.8917C256.277 18.3047 262.045 24.6877 264.265 30.6657ZM253.026 60.1197C228.031 146.156 165.64 108.656 158.838 97.6297C146.569 79.3837 144.261 35.0297 154.948 23.1707C167.469 14.393 184.251 14.6491 199.84 14.8869C203.297 14.9396 206.695 14.9915 209.975 14.9437C243.176 15.3917 266.756 25.3237 253.026 60.1197Z" transform="translate(-1.999528 9.999668)" fill="#000000" fill-rule="evenodd" stroke="none"></path></g></g></g></g></svg>