<?xml version="1.0" standalone="no"?>
<svg viewBox="-350 -150 1500 1500" xmlns="http://www.w3.org/2000/svg" style="width: 390px; height: 390px; justify-content: center; align-self: center; transform: scale(1, 1);"><g transform="rotate(0 408.5065425634384 590.2591400146484)"><g id="body_Hoodie" data-name="body/Hoodie" transform="translate(0 459)"><path id="_Skin" data-name="âœ‹ Skin" d="M778.244,749.543c19.326-.933,11.553-34.738,10.166-47.153-15.3-45.344-11.7-94.816-17.722-142.344-3.749-44.368-8.566-88.6-12.618-132.932-7.958-89.994-65.1-273.2-130.32-302.661-8.215-36.046-42.146-69.694-85.076-69.694C513.394,20.1,478.151-4.293,432.948.632c-18.68.85-36.8,20.662-54.695,24.488-10.022,1.382-98.962-2.175-116.778,8.406-12.41,6.372-23.613,18.147-19.964,33.138,5.822,18.162-12.271-1.49-50.014,17.895-76.963,46.223-30.973,108.06-28.935,109.976C114.534,261.358,72.555,315.57,53.132,397.247,40.544,457.886,41.961,520.485,31.414,581.435,27.69,602.569,21.977,622.98,15.8,643.5c-6.7,26.859-9.958,93.8-13.651,94.4-6.727,1.671,3.888,15.483,11.016,15.494,197.624,32.781,398.362,1.358,597.048-3.776C666.2,747.675,722.254,747.226,778.244,749.543Z" transform="translate(12.504 -34)" fill="#d08b5b"></path><path id="_Jacket" data-name="ðŸ§¥ Jacket" d="M378.5,64.457c0,21.032,73.03,99.184,98.234,94.028q25.2-5.156,76.16-67.249V64.457L545.558,35.3c41.56,1.465,74.161,34.409,82.191,69.643,64.563,29.169,121.219,209.019,130.067,299.934l.253,2.728c4.052,44.334,8.869,88.564,12.618,132.932,6.018,47.528,2.421,97,17.722,142.344l.091.77c1.6,12.984,8.683,45.469-10.257,46.383-55.99-2.317-112.043-1.868-168.036.079-198.686,5.134-399.424,36.557-597.048,3.776C6.032,733.882-4.583,720.07,2.144,718.4,5.837,717.8,9.1,650.857,15.8,624l1.272-4.245c5.689-19.1,10.88-38.147,14.347-57.823,10.547-60.95,9.13-123.549,21.718-184.188,19.423-81.677,61.4-135.889,109.43-202.712-2.038-1.916-48.028-63.752,28.935-109.976,37.743-19.385,55.836.267,50.014-17.9-3.649-14.991,7.554-26.766,19.964-33.138C279.291,3.44,368.231,7,378.253,5.615A53.6,53.6,0,0,0,392.27,0l-.814,2.71Q378.5,46.129,378.5,64.457Z" transform="translate(12.504 -14.495)" fill="#9fd8e5"></path><path id="_Ink" data-name="ðŸ– Ink" d="M489.923,756.62a2.312,2.312,0,0,1-2.344-2.262c-2.9-42.141-4.793-84.108-6.62-124.693l0-.039c-1.3-28.844-2.125-58.437-2.525-90.472-.544,0-1.1.009-1.633.014h-.079c-.79.007-1.608.015-2.412.018-21.611.094-43.954.192-65.926.192-18.81,0-35.54-.071-51.146-.218l.01.009a.977.977,0,0,1,.162.247c2.792,6.59,3.1,14.986,3.024,22.33a110.352,110.352,0,0,1-3.073,24.292,127.572,127.572,0,0,1-6.955,20.859,156.4,156.4,0,0,1-10.19,19.6,215.18,215.18,0,0,1-26.985,34.9l-.65.689c-.692.732-1.414,1.479-2.113,2.2l-.033.034c-4.11,4.253-8.361,8.65-10.81,14.018-2.341,5.129-3.468,10.961-4.559,16.6-.276,1.426-.56,2.9-.857,4.317l-.17.8-5.678,26.226c-.385,1.778-.708,3.712-1.05,5.759-1.253,7.5-2.673,16-7.86,20.73a10.5,10.5,0,0,1-7.1,2.936c-4.313,0-8.276-2.934-10.1-7.476-1.923-4.79-.6-9.924.684-14.889l0-.007c.218-.845.443-1.718.644-2.56l10.491-44.1c1.768-7.374,3.659-14.52,7.328-20.891,3.8-6.592,9.257-11.292,15.036-16.268l.063-.054a191.116,191.116,0,0,0,15.448-14.892,182.332,182.332,0,0,0,13.638-16.562,159.839,159.839,0,0,0,20.559-37.558,135.328,135.328,0,0,0,5.995-20.622c.652-3.2.992-6.515,1.32-9.716a92.537,92.537,0,0,1,1.463-10.373,1.28,1.28,0,0,1,.922-.9.564.564,0,0,1,.059-.49.51.51,0,0,1,.406-.226l31.918-2.051c27.254-1.758,56.425-3.683,85.089-5.852l5.009-.362c-.356-36.713-.137-76.214.668-120.758.25-13.856.411-27.947.566-41.573v-.057c.258-22.66.526-46.092,1.211-69.132.563-18.876,1.79-37.532,3.033-54.882,1.049-14.631,2.617-29.42,4.135-43.723.421-3.967.856-8.069,1.279-12.157a.7.7,0,0,1,1.406,0l1.395,13.469c1.544,14.958,3.294,32.344,4.517,49.395,1.482,20.683,2.472,41.5,2.941,61.869,1.724,74.713,2,150.6,2.13,215.867,9.478-.657,19.3-1.313,29.2-1.951,5.856-.378,12.154-.772,19.82-1.238l16.847-1.021,6.936-.426c.65-.04,1.326-.1,1.98-.156h.008c1.253-.109,2.548-.221,3.8-.221,2.368,0,5.361.348,7.5,3.059,1.545,1.956,1.817,4.068.747,5.794-2.635,4.251-6.555,4.391-11.093,4.553l-.054,0-.908.034c-4.6.186-9.267.371-13.872.548-8.77.341-19.16.729-29.729,1.026-10.465.294-20.961.532-31.2.706-.105,30.326-1.347,60.377-2.722,91.057l-.615,13.655c-1.857,41.238-3.587,75.855-5.993,110.761A2.313,2.313,0,0,1,489.923,756.62Zm-299.2-3.946a6.222,6.222,0,0,1-5.53-3.115l.7.462a1.127,1.127,0,0,0,.213.12c.013-.032-.709-.582-2.271-1.73l-1.683-2.177a13.62,13.62,0,0,1-2.317-5.83,33.884,33.884,0,0,1,.138-7.83c.084-.9.171-1.819.229-2.7l3.864-59.612c1.11-17.117,2.3-34.433,3.456-51.178,1.982-28.784,4.031-58.547,5.7-87.862,1.094-19.208,2.13-41.938,1.51-64.889-.352-13.043-.814-23.049-1.5-32.442-.864-11.865-2.078-22.413-3.71-32.247a2.022,2.022,0,0,1,.442-1.667,1.936,1.936,0,0,1,1.45-.693,1.805,1.805,0,0,1,1.536.915,139.638,139.638,0,0,1,8.924,16.412,148.043,148.043,0,0,1,6.59,17.1,186.683,186.683,0,0,1,7.392,36.247,296.546,296.546,0,0,1,1.623,33.354c-.029,12.042-.612,24.174-1.118,33.4-1.286,23.482-2.785,46.965-4.337,70.961l-2.349,36.263-5.9,90.909a27.791,27.791,0,0,1-1.807,9.024,12.44,12.44,0,0,1-5.69,6.414,13.383,13.383,0,0,1-2.309,1.583A6.928,6.928,0,0,1,190.724,752.674ZM15.274,751.2a9.532,9.532,0,0,1-5.922-2.065A11.114,11.114,0,0,1,5.7,743.866a106.971,106.971,0,0,1-4.75-23.005,204.335,204.335,0,0,1-.93-23.554C.156,683.232,1.74,668.36,5,650.506c3.8-20.789,9.094-41.623,14.215-61.771l0-.008.009-.033c2.363-9.3,4.806-18.908,7.069-28.388,3.14-13.156,5.81-26.551,7.935-39.812,2.119-13.223,3.771-26.781,4.911-40.3.584-6.92,1.119-13.962,1.636-20.773l0-.057c1.584-20.857,3.222-42.425,6.483-63.47a287.058,287.058,0,0,1,9.275-40.442A277.026,277.026,0,0,1,71.7,316.836c12.087-25.065,27.314-48.08,39.23-65.33,9.029-13.069,18.328-25.521,27.641-37.009,9.934-12.254,20.24-23.854,30.633-34.479a11.889,11.889,0,0,1-5.738-1.844,17.369,17.369,0,0,1-6.275-7.219,29.569,29.569,0,0,1-2.693-9.269,127,127,0,0,1-.942-22.069,105.4,105.4,0,0,1,3.261-21.826A81.276,81.276,0,0,1,172.75,86.531a70.167,70.167,0,0,1,12.766-11.956,64.411,64.411,0,0,1,15.644-8.314,56.982,56.982,0,0,1,18.222-3.055c.544-.014,1.123-.02,1.771-.02.956,0,1.916.014,2.844.028H224c.941.014,1.913.028,2.888.028a33.842,33.842,0,0,0,10.431-1.277c3.747-1.232,6.931-3.886,9.733-8.116A70.9,70.9,0,0,0,252.9,41.966c.233-.56.453-1.09.677-1.623l.156-.37a74.515,74.515,0,0,1,7.576-14.165,44.2,44.2,0,0,1,11.37-11.278C283.26,7.323,296.633,4.361,307.1,2.586l.754-.127A174.615,174.615,0,0,1,336.325,0C356.316,0,374,3.979,388.875,11.827a.22.22,0,0,1,.105.256.224.224,0,0,1-.213.18h-.011l-7.941-.317c-9.588-.376-17.63-.626-25.718-.626-9.124,0-17.2.335-24.683,1.024A172.62,172.62,0,0,0,305.9,16.285l-2.531.61a108.353,108.353,0,0,0-13.331,3.964A42.947,42.947,0,0,0,278.02,27.6a33.7,33.7,0,0,0-7.889,9.886,107.757,107.757,0,0,0-5.31,11.628l-.309.755-.437,1.054a62.661,62.661,0,0,1-5.916,11.251,33.445,33.445,0,0,1-8.883,9.035,32.164,32.164,0,0,1-12.269,4.823,97.534,97.534,0,0,1-13.18,1.273h-.01c-2.008.1-4.085.209-6.107.371a44.5,44.5,0,0,0-13.552,3.3,49.937,49.937,0,0,0-11.843,7.04,57.439,57.439,0,0,0-9.727,9.917,61.72,61.72,0,0,0-7.2,11.934c-4.256,9.278-6.639,20.33-7.082,32.848a103.729,103.729,0,0,0,.527,17.251,27.156,27.156,0,0,0,1.445,4.787c.5,1.288,1.453,3.447,2.128,3.447l.041,0a5.944,5.944,0,0,1,.814-.056,5.1,5.1,0,0,1,4.82,3.049c6.4-6.185,12.9-12.094,19.323-17.561a371.648,371.648,0,0,1,53.146-37.842c13.111-7.667,28.722-16.39,45.088-22.953l-.177,0a7.449,7.449,0,0,0-3.469.836.518.518,0,0,1-.731-.261.493.493,0,0,1,.107-.547A16.617,16.617,0,0,1,297,88.9a15.877,15.877,0,0,1,6.136-1.181,22.249,22.249,0,0,1,5.009.612c1.367-.435,2.616-.817,3.817-1.166a.607.607,0,0,1,.169-.025.521.521,0,0,1,.5.394.577.577,0,0,1-.233.66l-1.462.933c6.453,2.162,12.756,6.376,17.821,9.762l.094.063c13.155,8.792,25.075,19.535,36.6,29.923l.053.047c1.159,1.045,2.358,2.126,3.539,3.186l2.353,2.107c10.895,9.729,22.8,19.879,36,28.2a127.213,127.213,0,0,0,21.345,11.155c1.452.572,3.1,1.091,4.836,1.641,5.935,1.875,12.661,4,14.979,9.23A6.136,6.136,0,0,1,450,189.261a7.017,7.017,0,0,1-3.011,4.723c-1.851,2.037-4.546,3.07-8.011,3.07-4.5,0-9.412-1.65-14.047-3.433a149.034,149.034,0,0,1-21.866-10.5c-12.1-7.107-24.438-16.392-37.706-28.385-8.073-7.3-15.974-15.027-23.614-22.5-3.867-3.783-7.863-7.692-11.852-11.517-2.482-2.379-4.977-4.826-7.39-7.192-2.569-2.519-5.225-5.123-7.876-7.658l-2.579-2.442c-.392-.367-.807-.765-1.247-1.185a51.6,51.6,0,0,0-9.1-7.421c-2.885,1.721-5.823,3.436-8.664,5.094-4.595,2.682-9.342,5.453-13.941,8.292-9.319,5.753-19.274,12.432-30.435,20.419a465.837,465.837,0,0,0-54.1,45.461c-7.551,7.373-15.06,15.237-22.316,23.373-7,7.849-13.971,16.181-20.719,24.766a626.729,626.729,0,0,0-37.115,52.868l-1.745,2.777c-7.655,12.23-13.6,22.367-18.693,31.9A287.072,287.072,0,0,0,78.51,343.316a248.175,248.175,0,0,0-11.089,38.9,376.979,376.979,0,0,0-5.773,40.067c-1.161,12.282-1.981,24.795-2.775,36.9-.934,14.244-1.9,28.972-3.426,43.411-1.353,12.8-3.38,26.112-6.2,40.7-2.3,11.922-5.127,24.7-8.891,40.211l-1.547,6.339q-.464,1.891-.928,3.782l-.057.232,0,.008c-5.463,22.241-11.111,45.24-13.96,68.377A284.264,284.264,0,0,0,21.5,701.8c.18,10.858,1.636,21.722,3.044,32.229l.008.059c.312,2.326.634,4.732.938,7.1a7.991,7.991,0,0,1-2.466,6.586,11.483,11.483,0,0,1-6.272,3.313A10.029,10.029,0,0,1,15.274,751.2Zm786.81-13.4a11.4,11.4,0,0,1-7.438-2.652,10.743,10.743,0,0,1-3.64-7.939,544.545,544.545,0,0,0-5.659-56.154c-2.744-18.573-6.19-37.36-9.523-55.528l0-.016c-2.674-14.578-5.439-29.652-7.834-44.567-2.9-18.067-5.2-37.938-7.035-60.747-1.635-20.335-2.756-41.077-3.839-61.137v-.012c-1.385-25.637-2.817-52.148-5.338-78.074-1.356-13.952-2.911-26.628-4.753-38.754-2.067-13.608-4.44-26.175-7.253-38.42a405.144,405.144,0,0,0-15.774-52.45,352.635,352.635,0,0,0-23.22-49.58c-4.684-8.227-9.545-15.98-14.449-23.041A233.159,233.159,0,0,0,669.592,147.3c-8.481-9.588-19.908-21.97-33.1-32.7a7.152,7.152,0,0,1-5.125,2,9.377,9.377,0,0,1-5.036-1.507,8.411,8.411,0,0,1-3.4-4.231,28.3,28.3,0,0,1-1.2-7.172,40.085,40.085,0,0,0-.663-5.267,61.757,61.757,0,0,0-3.47-11.026A72.449,72.449,0,0,0,605.043,67.86a78.919,78.919,0,0,0-8.885-8.493,84.036,84.036,0,0,0-10.068-7.041c-4.458-2.66-9.269-4.185-13.922-5.66-2.819-.894-5.735-1.818-8.569-2.99a.307.307,0,0,1-.2-.288.276.276,0,0,1,.2-.254,24.569,24.569,0,0,1,8.043-1.232c6.269,0,12.989,1.833,18.143,3.43A61.1,61.1,0,0,1,602.478,51a78.362,78.362,0,0,1,11.315,8.109,72.837,72.837,0,0,1,10.055,10.522,71.943,71.943,0,0,1,7.75,12.32l.412.84a82.282,82.282,0,0,1,5.442,13.738c1.548,5.55,1.884,10.373,1,14.336-.057.254-.123.5-.2.73a186.541,186.541,0,0,1,23.133,13.467,159.012,159.012,0,0,1,20.77,16.958,228.6,228.6,0,0,1,20.919,23.4,259.671,259.671,0,0,1,17.715,25.917,290.361,290.361,0,0,1,14.493,27.453c4.194,9.076,8.085,18.692,11.564,28.581,3.3,9.368,6.331,19.29,9.021,29.49,2.523,9.568,4.832,19.722,6.862,30.18,3.6,18.524,6.471,38.658,8.791,61.552,2.151,21.235,3.568,42.195,4.779,61.681l1.263,20.677c1.532,24.864,2.979,45.747,5.062,66.843,2.431,24.619,5.463,46.333,9.271,66.381l.61,3.18c1.873,9.662,3.952,19.508,5.962,29.031l0,.016c3.8,18.012,7.733,36.637,10.514,55.091,1.5,9.94,2.55,19.023,3.215,27.769a268.448,268.448,0,0,1,.744,27.944,10.593,10.593,0,0,1-3.5,7.948A11.156,11.156,0,0,1,802.084,737.794Zm-123.566-8.3a8.133,8.133,0,0,1-6.106-2.665c-5.644-6.087-6.045-15.942-6.4-24.636v-.011c-.1-2.458-.194-4.779-.4-6.949-.771-8.238-1.659-16.577-2.638-24.786l-.5-4.125c-.188-1.52-.373-3.071-.552-4.571a219.291,219.291,0,0,0-3.7-23.611A39.732,39.732,0,0,0,646.809,618c-1.718-1.708-3.483-3.41-5.19-5.055l-.02-.019c-4.2-4.048-8.539-8.232-12.45-12.768A177.138,177.138,0,0,1,613.3,578.555a145.638,145.638,0,0,1-10.291-20.575l-.494-1.174c-.514-1.226-1.081-2.5-1.681-3.855-2.77-6.24-5.907-13.308-5.723-19.524a.428.428,0,0,1,.721-.3,29.183,29.183,0,0,1,4.968,6.824c.544.921,1.107,1.874,1.688,2.768,2.44,3.751,5,7.415,7.608,10.89,5.374,7.161,11.457,14.006,17.23,20.336a246.38,246.38,0,0,0,17.627,17.433c2.32,2.078,4.776,4.109,7.151,6.074a128.566,128.566,0,0,1,13.017,11.81c11.8,12.875,14.343,30.192,16.806,46.94l.006.04c.167,1.136.34,2.31.512,3.458l.292,1.921c1.571,10.194,3.048,20.853,4.391,31.679v.011c.589,4.753,1.258,10.141,1.792,15.444l.159,1.634a37.57,37.57,0,0,1,.106,7.533,15.676,15.676,0,0,1-2.418,7.055,10.109,10.109,0,0,1-3.619,3.3A9.766,9.766,0,0,1,678.517,729.494Zm61.184-3.555a10.812,10.812,0,0,1-8.752-5.007c-3.3-4.727-3.553-12.216-3.779-18.824-.08-2.357-.156-4.584-.361-6.576-.941-9.136-1.771-16.542-2.61-23.307-1.9-15.348-4.453-30.816-6.922-45.244-2.9-16.96-6.578-34.087-10.131-50.65-3-14-6.106-28.466-8.732-42.77-6.824-37.163-10.076-67.933-10.232-96.836-.119-22.344,1.477-45.026,3.02-66.962v-.006c.726-10.317,1.477-20.986,2.039-31.5,1.64-30.635,3.6-63.3,5.984-99.875a.75.75,0,0,1,.77-.724.707.707,0,0,1,.73.724c.167,7.691.33,15.445.522,24.721.315,15.171.516,30.605.711,45.531v.015c.329,25.2.669,51.26,1.563,76.873,1,28.723,2.61,53.817,4.916,76.716,1.482,14.712,3.6,29.922,6.479,46.5,2.408,13.867,5.4,28.933,9.144,46.059,1.667,7.621,3.4,15.333,5.067,22.791l.016.072c1.769,7.895,3.6,16.058,5.352,24.1.615,2.819,1.249,5.692,1.862,8.47l.071.323c2.689,12.18,5.47,24.774,7.6,37.23,2.337,13.646,4.872,29.753,5.96,45.75l.129,2c.085,1.407.23,2.932.384,4.546a82.836,82.836,0,0,1,.547,10.776c-.158,4.1-.953,7.248-2.43,9.626C746.468,723.949,743.216,725.938,739.7,725.938ZM486.637,172.392a27.284,27.284,0,0,1-11.867-2.885,64.852,64.852,0,0,1-10.6-6.7l-.773-.582c-7.848-5.941-14.886-11.612-21.518-17.338a338.668,338.668,0,0,1-39.751-39.919,276.8,276.8,0,0,1-16.889-22.287,146.822,146.822,0,0,1-13.53-24.432,1.158,1.158,0,0,1,.095-1.1.99.99,0,0,1,.814-.466,1.033,1.033,0,0,1,.711.313c3.755,3.573,7.284,7.287,10.242,10.45.039-2.172-.107-4.389-.247-6.534a56.109,56.109,0,0,1-.09-9.328c.2-1.924.321-3.95.44-5.909.285-4.664.579-9.486,1.87-13.83a11.832,11.832,0,0,1,11.225-8.475,11.287,11.287,0,0,1,2.989.4,12.412,12.412,0,0,1,7.408,6.287,9.772,9.772,0,0,1,.661,7.928c-1.751,4.652-4.5,8.875-7.168,12.959l0,.006c-.985,1.511-2,3.073-2.958,4.636a62.452,62.452,0,0,1-5.835,7.661,65.748,65.748,0,0,0-5.522,7.165l3.666,3.952c1.624,1.745,3.552,3.806,5.534,5.858l6.395,6.624c4.746,4.905,9.866,10.146,15.144,15.237,9.052,8.731,16.169,15.337,23.076,21.42,8.562,7.54,16.555,14.032,24.438,19.846,3.51,2.588,7.6,5.579,11.757,8.332l1.492.988c2.434,1.594,5.29,3.3,8.371,3.3.252,0,.506-.012.755-.034,6.872-.631,13.219-6.987,18.319-12.1.9-.9,1.741-1.743,2.56-2.532l.29-.277a310.9,310.9,0,0,0,37.546-42.689c2.376-3.286,4.726-6.685,7.182-10.39-4.343-5.073-4.337-14.085-4.332-21.326v-.014c0-1.718,0-3.341-.054-4.794-.2-5.023-.223-10.128-.248-15.065l-.005-.993-.014-1.08-.008-.388c-.067-3.347-.13-6.508,2.035-9.254a.387.387,0,0,1,.314-.133.566.566,0,0,1,.255.06c2.835,1.485,3.855,3.869,5.036,6.63l.044.1q.131.305.265.616l.137.315c1.243,2.827,2.464,5.721,3.646,8.52l0,.011.041.1q.495,1.172.99,2.344c1.407,3.321,2.732,6.734,4.012,10.035l.607,1.564c.629,1.616,1.292,3.394,2.027,5.436.383,1.116.787,2.253,1.236,3.475l.1.089A10.377,10.377,0,0,1,570.4,75.7a7.256,7.256,0,0,1,3.726,4.729c1.329,4.774-1.228,8.707-3.7,12.51l-.366.563a314.442,314.442,0,0,1-35.638,45.528c-6.512,6.865-13.483,13.545-20.719,19.855l-1.261,1.092a75.241,75.241,0,0,1-10.264,7.669,32.476,32.476,0,0,1-11.894,4.471A24.615,24.615,0,0,1,486.637,172.392Z" transform="translate(2 -21.143)"></path></g><g transform="translate(225 0)"><g><g><path id="_Skin" data-name="âœ‹ Skin" d="M185.626,0C242.407,0,301.136,44.012,321.95,72.1c17.5,23.613,26.921,130.388,26.921,202.548,0,15.092,8.328,43.541,5.9,57.977-8.906,52.9-47.709,97.264-124.507,97.264S98.4,399.445,41.317,317.713c-27.7,0-41.12-21.24-41.315-54.759S26.737,217.24,26.737,217.24s-9.6-132.279,14.58-166.718S128.845,0,185.626,0Z" transform="translate(56.415 75.26)" fill="#d08b5b"></path><path id="_Ink" data-name="ðŸ– Ink" d="M240.7,460.988a134.978,134.978,0,0,1-24.924-2.26,109.827,109.827,0,0,1-23.624-7.177,89.12,89.12,0,0,1-20.9-12.692,81,81,0,0,1-16.743-18.8.491.491,0,0,1-.04-.516.622.622,0,0,1,.539-.3.592.592,0,0,1,.381.136,93.319,93.319,0,0,0,13.143,8.934,101.44,101.44,0,0,0,14.06,6.5,142.878,142.878,0,0,0,30.5,7.382,150.258,150.258,0,0,0,20.742,1.427,155.98,155.98,0,0,0,23.216-1.744,151.083,151.083,0,0,0,22.766-5.251,137.75,137.75,0,0,0,21.484-8.785A121.207,121.207,0,0,0,320.675,415.5a80.61,80.61,0,0,0,18.056-19.967,85.806,85.806,0,0,0,6.392-11.932,84.716,84.716,0,0,0,4.413-12.752,80.693,80.693,0,0,0,2.286-13.557,77.081,77.081,0,0,0-.107-13.752c-.615-6.2-2.7-11.917-4.713-17.443-1.007-2.762-2.047-5.617-2.907-8.526a7.836,7.836,0,0,1,1.86-7.671c.246-3.442.66-6.954,1.061-10.35.428-3.631.871-7.382,1.108-11.049.509-8.057.822-16.206.931-24.222.2-16.032-.438-32.935-1.9-50.239-1.552-18.383-4.7-36.8-7.745-54.61-2.017-11.8-4.1-24-5.7-36.071a5.039,5.039,0,0,1-3.39,1.354,5.315,5.315,0,0,1-2.469-.638l-.231-.127-1.22-.7a1.864,1.864,0,0,0-.221.019c-1.75.17-3.557.256-5.371.256a66.107,66.107,0,0,1-19.639-3.1A73.589,73.589,0,0,1,278.086,108.5a104.449,104.449,0,0,0-1.879,20.269,5.167,5.167,0,0,1-1.663,3.86,5.572,5.572,0,0,1-3.775,1.432,5.9,5.9,0,0,1-2.662-.641,339.2,339.2,0,0,1-45.42-27.79l-1.052,5.387-.011.056c-1.3,6.683-2.653,13.593-3.988,20.4a4.342,4.342,0,0,1-1.842,2.763,5.633,5.633,0,0,1-3.193.979,5.069,5.069,0,0,1-2.555-.661,96.072,96.072,0,0,1-27.67-24.241c-1.808,3.457-3.257,6.213-4.559,8.674l-2.3,4.325c-2.319,4.343-5.354,8.964-10.28,10.31a9.147,9.147,0,0,1-2.413.333,8.635,8.635,0,0,1-5.507-2.027,11.76,11.76,0,0,1-3.5-5.036c-.521-1.426-1.025-2.95-1.5-4.53a264.463,264.463,0,0,1-15.26,29.77c-7.81,13.024-17.252,25.02-26.383,36.621q-1.383,1.757-2.767,3.518a4.041,4.041,0,0,1-3.222,1.686c-2.606,0-5.361-2.607-5.669-5.365-.237-2.149-.446-4.38-.641-6.821-6.948,14.021-13,25.35-19.031,35.654l.975,3.817c1.973,7.931,3.741,16.036,5.45,23.874.721,3.306,1.467,6.725,2.221,10.1a9.167,9.167,0,0,1-1.369,6.879,5.891,5.891,0,0,1-4.031,2.632,42.868,42.868,0,0,0-4.546,1.006,27.473,27.473,0,0,1-6.8,1.171,11.571,11.571,0,0,1-3.818-.619c-4.457-1.53-6.138-4.912-7.917-8.492-.5-1.007-1.017-2.046-1.6-3.066a18.8,18.8,0,0,0-1.834-2.6l-.171.222a.539.539,0,0,1-.443.217.832.832,0,0,1-.658-.358.565.565,0,0,1-.069-.538l.293-.727a57.133,57.133,0,0,0-5.276-4.736c-.777-.642-1.581-1.3-2.351-1.971a27.959,27.959,0,0,0-4.629-.376,25.564,25.564,0,0,0-12.389,2.93,24.593,24.593,0,0,0-6.169,5.206,29.626,29.626,0,0,0-4.325,6.79,38.326,38.326,0,0,0-3.444,15.754,72.992,72.992,0,0,0,10.238,37,32.086,32.086,0,0,0,5.111,6.454,21.52,21.52,0,0,0,6.849,4.5,32.528,32.528,0,0,0,8.133,1.75,34.637,34.637,0,0,1,7.807,1.61,6.719,6.719,0,0,1,4.021,3.957,5.355,5.355,0,0,1-.521,4.653c-.094.162-.2.317-.3.466l0,.006c-.049.072-.1.145-.147.219l1.555,2.065c.982,1.312,2.132,2.879,3.226,4.555,1.658,1.907,3.4,3.8,5.081,5.634l0,.005c1.015,1.106,2.065,2.249,3.085,3.382,3.416,3.783,6.818,7.7,10.109,11.492l.011.012c1.53,1.762,3.112,3.584,4.679,5.374,4.057,4.633,8.71,9.466,14.641,15.21,2.024,1.966,4.3,3.83,6.5,5.634a75.092,75.092,0,0,1,8.67,7.888,14.162,14.162,0,0,1,2.893,5.149,10.659,10.659,0,0,1,.313,5.591,7.522,7.522,0,0,1-4.807,5.349,10.271,10.271,0,0,1-3.817.747c-5.684,0-10.819-4.816-14.946-8.686-.384-.36-.781-.732-1.166-1.089l-.22-.2a144.711,144.711,0,0,1-25.185-30.083,22.147,22.147,0,0,1-12.36,3.716,19.617,19.617,0,0,1-11.144-3.271,20.5,20.5,0,0,1-7.656-11.024,16.148,16.148,0,0,1-3.543.429l-.2,0c-.736.427-1.341.762-1.9,1.055a11.6,11.6,0,0,1-5.319,1.344,9.151,9.151,0,0,1-4.886-1.351,8.679,8.679,0,0,1-3.415-4.144,13.629,13.629,0,0,1-.522-7.962,46.493,46.493,0,0,1,2.49-7.824l.392-1.013a88.729,88.729,0,0,1,3.75-8.719,47.5,47.5,0,0,1-10.62-11.33A78.643,78.643,0,0,1,2.334,297.2,87.651,87.651,0,0,1,.176,282.943a72.411,72.411,0,0,1,.34-13.775A50.3,50.3,0,0,1,5.2,253.48a45.214,45.214,0,0,1,4.286-7.069,38.69,38.69,0,0,1,5.524-6.025l-.3-.78a117.831,117.831,0,0,1-5.719-17.779,183.6,183.6,0,0,1-3.05-21.93,209.935,209.935,0,0,1,.89-46.61,204.4,204.4,0,0,1,10.009-42.552A166.638,166.638,0,0,1,36.556,71.827,33.392,33.392,0,0,1,30.8,62.6a18.806,18.806,0,0,1-1.223-5.175,16.906,16.906,0,0,1,2.646-10.537,13.33,13.33,0,0,1,3.8-3.863A11.734,11.734,0,0,1,39,41.768a13.685,13.685,0,0,0,2.418-.94l.508-.28c.453-.264.418-.351.222-.834a8.826,8.826,0,0,1-.49-1.566c-.962-4.42-.861-8.206.3-11.254,1.353-3.552,4.129-5.983,8.25-7.226a14.8,14.8,0,0,1,4.273-.634A17.7,17.7,0,0,1,63.9,21.966a29.351,29.351,0,0,1,7.451,6.871A92.272,92.272,0,0,1,93,17.927c7.523-2.773,15.264-4.941,23.194-7.1a321.158,321.158,0,0,1,51.95-9.271A313.381,313.381,0,0,1,199.579,0a368.179,368.179,0,0,1,37.485,1.972c11.894,1.207,24.125,2.945,37.391,5.315a5.8,5.8,0,0,1,4.8,4.389c9.963.455,20.094,1.085,29.891,1.695,6.566.408,13.355.831,20.029,1.2a8.406,8.406,0,0,1,3.975,1.2,7.681,7.681,0,0,1,3.686,6.416,8.429,8.429,0,0,1-.961,4.05c-.567,1.1-1.152,2.165-1.7,3.149l.728-.24a27.208,27.208,0,0,1,8.268-1.49,14.756,14.756,0,0,1,7,1.641,13.837,13.837,0,0,1,6.469,7.232,17.06,17.06,0,0,1,.791,9.737,25.833,25.833,0,0,1-1.609,4.861c.5-.033.992-.049,1.463-.049a20.1,20.1,0,0,1,2.627.17,15.732,15.732,0,0,1,5.032,1.537,14.431,14.431,0,0,1,7.968,12.362c.263,5.226-1.138,10.752-4.163,16.423a55.876,55.876,0,0,1-10.936,14.045,14.054,14.054,0,0,1,1.189,8.531,13.671,13.671,0,0,1-3.729,7.3,21.86,21.86,0,0,1-6.787,4.574,54.851,54.851,0,0,1,2.538,21.022,5.235,5.235,0,0,1-1.5,3.162,6.083,6.083,0,0,1-3.023,1.723,249.956,249.956,0,0,1,9.725,35.192c2.165,10.518,4,21.951,5.772,35.983a435.124,435.124,0,0,1,3.339,51.17c.063,7.739-.067,15.539-.388,23.184l-.131,2.9c-.084,1.752-.152,3.544-.218,5.277a144.229,144.229,0,0,1-1.7,20.1c4.315,7.34,6.948,16.918,8.05,29.279a90.1,90.1,0,0,1-4.441,36.032,99.551,99.551,0,0,1-15.776,29.494,117.141,117.141,0,0,1-23.955,23.088,139.524,139.524,0,0,1-29.432,16.282,149.18,149.18,0,0,1-32.207,9.076A152.047,152.047,0,0,1,240.7,460.988ZM57.439,291.214a6.935,6.935,0,0,1-3.882-1.248c-4.194-2.811-7.032-7.168-9.777-11.381-.266-.407-.566-.869-.858-1.312l-.314-.476c-.272-.408-.542-.828-.8-1.234l-.006-.009a21.367,21.367,0,0,0-3.672-4.687l-.409-.358a5.747,5.747,0,0,0-2.092-1.242,4.027,4.027,0,0,0-1.09-.138,5.68,5.68,0,0,0-2.38.53,3.054,3.054,0,0,0-1.63,1.629l-.06.189a.792.792,0,0,1-.792.6.837.837,0,0,1-.868-.824,9.078,9.078,0,0,1,2.654-6.616,10.772,10.772,0,0,1,7.636-3.073,11.439,11.439,0,0,1,1.97.171c4.156.723,7.585,3.209,10.741,5.693l1.567,1.24.831.65.026.021c3.618,2.826,7.719,6.029,9.884,10.065a7.984,7.984,0,0,1-.369,7.911,8.524,8.524,0,0,1-2.688,2.8A6.744,6.744,0,0,1,57.439,291.214Z" transform="translate(50 55)"></path></g></g><g transform="translate(159 186)"><g><path d="M175.373 49.5872C175.699 49.4437 175.991 49.2049 176.203 48.8583C178.978 44.3099 179.267 38.8813 178.039 33.5637C176.563 27.172 172.899 20.9588 168.944 16.7559C163.959 11.4582 157.895 7.75374 151.246 4.94731C150.762 4.74287 150.267 4.53098 149.763 4.31514C142.964 1.40541 134.597 -2.01031 127.865 1.47064C125.161 2.86951 123.673 5.20381 123.256 7.7496C122.814 10.4534 123.597 13.4099 125.462 15.7216C128.557 19.5594 133.339 20.3533 138.087 21.0465C139.602 21.2677 141.106 21.486 142.53 21.8229C147.429 22.9821 152.604 24.4361 157.104 26.7244C166.253 31.3762 170.54 38.5898 172.747 48.2853C172.837 48.6781 173.037 48.9988 173.3 49.2406C173.575 49.4928 173.921 49.6579 174.285 49.7192C174.651 49.7808 175.032 49.7375 175.373 49.5872ZM58.3942 19.1934C55.0693 22.4329 51.1339 22.9347 47.1526 23.381C44.9405 23.6313 43.1746 23.8331 41.4369 24.2252C36.6605 25.3034 31.9393 26.9272 27.6319 29.2659C23.1292 31.7106 18.2224 34.659 14.6922 38.4361C13.8528 39.3349 13.0615 40.278 12.2691 41.2232C11.5465 42.0851 10.8505 42.9149 10.1169 43.7149C9.27449 44.6339 8.47449 45.597 7.67875 46.5576C7.1867 47.3681 7.0895 47.5675 6.99041 47.775C6.8413 48.0869 6.66786 48.4359 6.46976 48.8103C6.19845 49.323 5.88066 49.8843 5.54784 50.3932C4.9941 51.3234 4.69697 51.5796 4.44022 51.6942C4.01419 51.8839 3.61015 51.9774 3.21817 51.9268C2.85064 51.8793 2.50438 51.7028 2.16244 51.4138C0.455387 49.9715 -0.0480658 47.6046 0.00353523 45.092C0.0818393 41.2793 1.48813 37.0578 2.78452 34.4628C5.79888 28.4331 9.97938 22.1649 15.0062 17.6646C20.7422 12.5276 27.0177 8.63869 34.2256 5.95894C38.705 4.29304 43.8913 2.76391 48.7713 2.95706C52.284 3.09609 55.6373 4.14026 58.4066 6.74782C60.1072 8.34853 60.9235 10.6254 60.9235 12.9006C60.9235 15.2211 60.0757 17.5554 58.3942 19.1934ZM164.634 78.3299C166.478 78.8824 167.779 78.6212 169.441 77.7551C170.719 77.0896 171.589 76.0387 172.088 74.8117C172.599 73.5559 172.706 72.1077 172.454 70.7659C171.405 65.1948 168.042 60.2513 163.503 57.0672C159.091 53.9728 153.589 52.5435 148.048 53.7341C144.003 54.6036 138.007 58.4424 134.85 63.1243C133.504 65.1203 132.671 67.2595 132.581 69.3723C132.495 71.387 133.008 73.4183 135.676 76.096C135.935 76.177 136.208 76.2208 136.477 76.2208C137.138 76.2208 137.821 75.9439 138.274 75.5441C139.469 74.4935 140.311 73.1636 141.178 71.7329C141.641 70.9679 142.102 70.1976 142.69 69.5195C144.449 67.4927 147.002 65.7736 149.683 65.3262C152.167 64.911 154.406 65.6469 156.181 67.0355C158.256 68.6601 159.713 71.1522 160.252 73.8146C160.472 74.8933 161.036 75.8657 161.818 76.6477C162.607 77.4367 163.615 78.0237 164.634 78.3299ZM46.1749 69.1109C43.7479 67.5587 40.8928 67.0259 37.7287 68.4655C35.256 69.5899 30.9192 73.3385 27.9011 78.2662C25.8363 81.6374 24.3721 85.5922 24.6769 89.7117C24.7477 90.6684 24.3942 91.3738 23.8366 91.8954C23.3962 92.3073 22.7601 92.61 22.013 92.7047C21.3786 92.785 20.6686 92.7125 20.0913 92.5324C18.9931 92.1896 18.4119 91.4772 18.1929 90.8957C16.0797 85.2836 16.9901 79.0208 19.3585 73.3707C22.5547 65.7456 28.3592 59.3585 32.1622 57.2993C38.6698 53.7742 46.347 53.612 52.8639 57.2031C58.4114 60.2596 61.8802 65.1942 65.3301 70.2242C66.0635 71.2934 66.7914 72.3548 67.5436 73.3976C69.0513 75.487 69.2013 77.5593 68.6175 79.3363C67.9707 81.3049 66.3215 82.9663 64.2592 83.8357C62.353 84.6393 60.1407 84.7524 58.1831 83.9268C56.5293 83.2293 55.0117 81.8695 54.0513 79.5625C52.434 75.6771 49.7393 71.3904 46.1749 69.1109ZM127.748 115.98C135.872 104.601 124.366 93.898 116.814 89.3079C114.836 87.8879 116.406 83.1842 120.634 83.9112C159.031 90.5082 139.136 156.649 90.112 120.354C84.2754 115.645 91.3434 105.275 97.6342 109.307C97.9532 109.552 98.2876 109.81 98.6364 110.08C105.704 115.544 118.636 125.542 127.748 115.98ZM117.042 185.1C109.675 187.233 101.768 187.424 94.2589 185.221C87.4481 183.222 80.4549 178.823 75.4423 173.003C70.9894 167.832 68.1055 161.549 68.2187 154.842C68.2316 154.076 68.5055 153.436 68.9268 152.94C69.3804 152.406 70.014 152.039 70.6926 151.88C71.3906 151.716 72.1285 151.774 72.7568 152.059C73.3256 152.318 73.8129 152.757 74.1176 153.398C74.8879 154.41 75.6553 155.407 76.4257 156.376C82.6196 164.024 88.618 169.74 97.9319 171.79C102.985 172.903 108.032 172.409 112.663 170.712C117.62 168.895 122.102 165.7 125.613 161.612C127.2 159.765 129.074 159.011 130.905 158.998C132.982 158.983 135.034 159.948 136.579 161.49C138.099 163.006 139.116 165.065 139.209 167.219C139.29 169.11 138.673 171.085 137.032 172.848C131.626 178.652 124.621 182.904 117.042 185.1Z" transform="translate(54.00004 55.05923)" fill="#000000" fill-rule="evenodd" stroke="none"></path></g></g><g transform="translate(123 338)"></g><g transform="translate(47 241)"><g><path d="M400.241 22.4717C406.555 19.4817 413.812 19.6607 420.603 20.5487C434.349 26.9267 404.861 34.3147 401.349 27.5287C404.801 52.9717 394.935 94.8897 366.724 108.133C334.13 124.07 298.773 99.8287 300.056 60.9787C293.067 59.2817 297.925 39.7137 300.739 31.7647C288.447 29.8527 276.738 28.7257 264.894 32.4797C271.42 50.8857 248.187 106.288 225.854 117.325C208.541 129.283 169.496 123.951 153.944 105.365C142.844 91.1707 137.3 58.2287 143.442 35.3387C143.388 35.3147 143.332 35.2967 143.279 35.2697C142.912 38.8697 118.056 38.4687 119.298 32.3037C83.5946 32.9447 49.0266 38.4207 13.6856 42.2807C9.41771 42.6777 9.20869 45.7037 9.00443 48.6607C8.82951 51.1931 8.65807 53.675 5.94363 54.4117C-4.52237 54.6617 0.226628 36.3637 9.44663 34.6657C18.2509 33.7459 27.1162 32.5506 36.011 31.3514C64.1217 27.5615 92.5269 23.7319 120.232 28.4287C124.112 23.4993 131.1 25.2524 136.795 26.6809C138.398 27.083 139.898 27.4593 141.198 27.6537C145.902 -0.109269 221.595 1.54173 246.677 12.8057C273.452 9.72473 301.309 7.96173 327.861 5.72573C344.673 0.333732 364.25 -2.44827 381.745 2.80973C384.166 2.67632 384.439 3.06209 384.978 3.82285C385.074 3.95736 385.177 4.10358 385.303 4.26073C392.194 7.30073 398.297 14.2087 400.241 22.4717ZM391.09 53.2827C381.556 117.772 315.002 124.904 303.177 60.8817C305.075 60.0507 306.44 58.4147 306.155 55.2387C306.088 41.2867 310.419 26.5407 323.005 18.7817C336.011 10.7757 351.232 9.98173 366.283 10.1837C395.005 9.49973 394.401 33.5067 391.09 53.2827ZM264.265 30.6657C272.34 25.1737 283.744 24.8557 292.758 25.2357C295.861 25.4177 300.059 25.2717 302.99 26.8347C306.149 20.6497 311.009 15.2997 316.233 11.7387C313.192 11.9693 310.141 12.2092 307.085 12.4496C288.207 13.9342 269.092 15.4374 250.449 14.8917C256.277 18.3047 262.045 24.6877 264.265 30.6657ZM253.026 60.1197C228.031 146.156 165.64 108.656 158.838 97.6297C146.569 79.3837 144.261 35.0297 154.948 23.1707C167.469 14.393 184.251 14.6491 199.84 14.8869C203.297 14.9396 206.695 14.9915 209.975 14.9437C243.176 15.3917 266.756 25.3237 253.026 60.1197Z" transform="translate(-1.999528 9.999668)" fill="#000000" fill-rule="evenodd" stroke="none"></path></g></g></g></g></svg>